<svg width="29" height="21" viewBox="0 0 29 21" fill="none" xmlns="http://www.w3.org/2000/svg">
<path d="M28.5703 2.74844C27.5432 3.15625 26.4487 3.42656 25.3077 3.55781C26.4815 2.92344 27.3774 1.92656 27.7986 0.725C26.7042 1.31562 25.4959 1.73281 24.2081 1.96563C23.1689 0.964063 21.6878 0.34375 20.0721 0.34375C16.9373 0.34375 14.4135 2.64688 14.4135 5.47031C14.4135 5.87656 14.4515 6.26719 14.5447 6.63906C9.83735 6.43125 5.67198 4.38906 2.87378 1.27813C2.38526 2.04531 2.09871 2.92344 2.09871 3.86875C2.09871 5.64375 3.10855 7.21719 4.61381 8.12812C3.70409 8.1125 2.81164 7.87344 2.05555 7.49688C2.05555 7.5125 2.05555 7.53281 2.05555 7.55312C2.05555 10.0437 4.01826 12.1125 6.59205 12.5891C6.13116 12.7031 5.62883 12.7578 5.10751 12.7578C4.745 12.7578 4.37904 12.7391 4.03553 12.6703C4.76917 14.7 6.85099 16.1922 9.32638 16.2406C7.39993 17.6047 4.95387 18.4266 2.30586 18.4266C1.8415 18.4266 1.39614 18.4078 0.950775 18.3563C3.45897 19.8203 6.43152 20.6562 9.6371 20.6562C20.0566 20.6562 25.7531 12.8438 25.7531 6.07187C25.7531 5.84531 25.7444 5.62656 25.7324 5.40938C26.8561 4.6875 27.8004 3.78594 28.5703 2.74844Z" fill="white"/>
</svg>
